<svg width="164" height="64" xmlns="http://www.w3.org/2000/svg" fill="none" class="jss7">
 <g id="Layer_1">
  <title>Layer 1</title>
  <g id="svg_3">
   <g id="svg_4">
    <title>Layer 1</title>
    <path id="svg_2" fill="#009393" d="m10.5497,13.30396l27.901,0c0.6658,0 1.2808,0.35614 1.6128,0.93392l8.1287,14.14588c0.4215,0.7336 0.2963,1.6595 -0.305,2.2544l-22.3745,22.1366c-0.7248,0.7171 -1.8907,0.7171 -2.6155,0l-22.34428,-22.1067c-0.61525,-0.6087 -0.73046,-1.5616 -0.27803,-2.2998l8.68895,-14.17576c0.3384,-0.55208 0.93889,-0.88854 1.58586,-0.88854zm24.2985,6.31565l0,3.96915l-7.9479,0l0,2.7519c5.5821,0.2941 9.7701,1.5019 9.8012,2.9496l-0.0002,3.0181c-0.0311,1.4477 -4.2189,2.6555 -9.801,2.9496l0,6.7535l-5.2775,0l0,-6.7535c-5.5821,-0.2941 -9.7701,-1.5019 -9.8011,-2.9496l0.0001,-3.0181c0.0311,-1.4477 4.2189,-2.6555 9.801,-2.9496l0,-2.7519l-7.9479,0l0,-3.96915l21.1733,0zm-10.5866,13.56495c5.957,0 10.9361,-1.0213 12.1546,-2.3852c-1.0333,-1.1566 -4.7709,-2.0669 -9.5159,-2.3169l0,2.8813c-0.8504,0.0448 -1.7333,0.0684 -2.6387,0.0684c-0.9055,0 -1.7883,-0.0236 -2.6388,-0.0684l0,-2.8813c-4.745,0.25 -8.4826,1.1603 -9.5159,2.3169c1.2185,1.3639 6.1976,2.3852 12.1547,2.3852z" clip-rule="evenodd" fill-rule="evenodd"/>
    <text font-style="italic" font-weight="bold" transform="matrix(0.670729 0 0 0.889505 70.0798 40.2133)" xml:space="preserve" text-anchor="start" font-family="'El Messiri'" font-size="46" stroke-width="0" id="svg_1" y="1.76066" x="-31.95171" fill="#009393">Lebanon</text>
   </g>
  </g>
 </g>

</svg>